<svg xmlns="http://www.w3.org/2000/svg" xmlns:xlink="http://www.w3.org/1999/xlink" width="83" height="83" viewBox="0 0 83 83">
  <defs>
    <clipPath id="clip-path">
      <circle id="Ellipse_1" data-name="Ellipse 1" cx="41.5" cy="41.5" r="41.5" transform="translate(0 -0.086)" fill="#fff" stroke="#707070" stroke-width="1"/>
    </clipPath>
  </defs>
  <g id="Group_9" data-name="Group 9" transform="translate(-320 -5288)">
    <g id="Mask_Group_1" data-name="Mask Group 1" transform="translate(320 5288.086)" clip-path="url(#clip-path)">
      <g id="Group_8" data-name="Group 8" transform="translate(15.673 14.737)">
        <path id="Path_5" data-name="Path 5" d="M261.045,86.83l-6.933,5.264L247.18,86.83s-16.794-6.414-13.272-25.8c2.224-12.234,13.2-15.422,19.8-15.459,6.6,0,17.572,3.188,19.76,15.422,3.522,19.426-12.419,25.84-12.419,25.84Z" transform="translate(-227.828 -45.568)" fill="#484848"/>
        <path id="Path_6" data-name="Path 6" d="M518.144,74.558a2.929,2.929,0,0,1,.519.037s13.791-1.928,17.869,17.572a1.554,1.554,0,0,0,1.742-.853S536.717,72.7,518.663,72.7h-.519Z" transform="translate(-491.934 -70.739)" fill="#74797d"/>
        <path id="Path_7" data-name="Path 7" d="M734.861,362.938c1.112.3,1.446,2,.741,3.781s-2.224,2.966-3.337,2.632c-1.112-.3-1.446-2-.741-3.781C732.229,363.827,733.712,362.641,734.861,362.938Z" transform="translate(-689.522 -339.916)" fill="#ffddb8"/>
        <path id="Path_8" data-name="Path 8" d="M239.722,361.792c-1.112.3-1.446,2.039-.741,3.818.741,1.779,2.224,3,3.337,2.669,1.112-.3,1.446-2.039.741-3.818C242.391,362.682,240.871,361.459,239.722,361.792Z" transform="translate(-232.641 -338.845)" fill="#f5d4b1"/>
        <path id="Path_9" data-name="Path 9" d="M513.024,766.033h25.617s-1.26-14.755-18.759-17.053a68.137,68.137,0,0,0-6.858-.185Z" transform="translate(-487.184 -697.857)" fill="#3b5e7c"/>
        <path id="Path_10" data-name="Path 10" d="M184.738,766.033H159.232s1.26-14.755,18.722-17.053a67.4,67.4,0,0,1,6.821-.185v17.239Z" transform="translate(-159.01 -697.857)" fill="#283f53"/>
        <path id="Path_11" data-name="Path 11" d="M424.448,619.52h13.494v20.724H424.448Z" transform="translate(-405.022 -577.962)" fill="#ffddb8"/>
        <path id="Path_12" data-name="Path 12" d="M424.448,621.568h13.494v3.448l-13.494,6.747Z" transform="translate(-405.022 -579.862)" fill="#e5c6a5"/>
        <path id="Path_13" data-name="Path 13" d="M513.024,780.505h4.263c.556-.741,7.229-15.719,7.192-15.941-.037-.148-8.749,1.409-8.749,1.409l-2.706-1.557Z" transform="translate(-487.184 -712.366)" fill="#fff"/>
        <path id="Path_14" data-name="Path 14" d="M521.022,838.849s.185,1.817,1.631.148-3.485-9.046-3.485-9.046Z" transform="translate(-492.884 -773.157)" fill="#3b5e7c"/>
        <path id="Path_15" data-name="Path 15" d="M372.925,782.275h-4.263c-.556-.779-7.229-15.719-7.192-15.941.037-.148,8.972,1.372,8.972,1.372l2.484-1.26v15.83Z" transform="translate(-346.604 -714.135)" fill="#e0ecff"/>
        <path id="Path_16" data-name="Path 16" d="M523.726,712.7l4.6,3.114s.111,8.786,0,8.453-11.715-7.6-11.715-7.6Z" transform="translate(-490.509 -664.398)" fill="#fff"/>
        <path id="Path_17" data-name="Path 17" d="M475.673,829.952s-4.894,7.377-3.448,9.046,1.631-.148,1.631-.148Z" transform="translate(-449.092 -773.157)" fill="#283f53"/>
        <path id="Path_18" data-name="Path 18" d="M359.292,712.7l-4.6,3.114s-.111,8.786,0,8.453,11.715-7.6,11.715-7.6Z" transform="translate(-340.274 -664.398)" fill="#fff"/>
        <path id="Path_19" data-name="Path 19" d="M517.12,784.768s6.636,4.745,6.71,1.631v-5.338s-.556-1.483-3.04,0c-3.485,1.928-3.67,2.076-3.67,2.076Z" transform="translate(-490.984 -727.195)" fill="#3b5e7c"/>
        <path id="Path_20" data-name="Path 20" d="M436.278,783.781s-6.636,4.782-6.71,1.668v-5.413s.556-1.483,3.04,0c3.485,1.965,3.67,2.076,3.67,2.076Z" transform="translate(-409.771 -726.245)" fill="#283f53"/>
        <path id="Path_21" data-name="Path 21" d="M163.2,817.664v12.271H156.16A20.1,20.1,0,0,1,163.2,817.664Zm44.524,12.271h-7.044V817.664A19.881,19.881,0,0,1,207.728,829.935Z" transform="translate(-156.16 -761.759)" fill="#e0ecff"/>
        <path id="Path_22" data-name="Path 22" d="M280.9,209.5c2.966,5,12.456,8.267,14.792,8.378v-34.07a16.826,16.826,0,0,0-17.165,17.053A17.044,17.044,0,0,0,280.9,209.5Z" transform="translate(-269.668 -173.798)" fill="#f5d4b1"/>
        <path id="Path_23" data-name="Path 23" d="M527.964,209.5c-3,5-12.6,8.267-14.94,8.378v-34.07a16.916,16.916,0,0,1,17.35,17.053A16.614,16.614,0,0,1,527.964,209.5Z" transform="translate(-487.184 -173.798)" fill="#ffddb8"/>
        <path id="Path_24" data-name="Path 24" d="M272.319,151.889a54.884,54.884,0,0,1-23.43,14.829,14.7,14.7,0,0,1-2.521-9.676S259.158,148,272.319,151.889Z" transform="translate(-239.77 -143.288)" fill="#484848"/>
        <path id="Path_25" data-name="Path 25" d="M609.417,476.555s8.378-3.374,10.529-7.563c1.409.26,1.038.927,1.038.927s-3.114,4.041-11.01,7.637C606.859,478.3,609.417,476.555,609.417,476.555Z" transform="translate(-575.681 -438.333)" fill="#91959b"/>
        <path id="Path_26" data-name="Path 26" d="M739.726,327.827c-3.411-.371-3.04,2.929-3.485,6.747s-1.52,6.784,1.854,7.155c3.411.371,6.525-2.484,6.97-6.339C745.546,331.571,743.136,328.2,739.726,327.827Z" transform="translate(-693.756 -307.363)" fill="#484848"/>
        <path id="Path_27" data-name="Path 27" d="M167.988,327.827c3.411-.371,3.04,2.929,3.485,6.747s1.557,6.784-1.854,7.155-6.525-2.484-6.97-6.339C162.205,331.571,164.615,328.2,167.988,327.827Z" transform="translate(-162.131 -307.363)" fill="#333"/>
        <path id="Path_28" data-name="Path 28" d="M544.164,553.6c1.891-.3,3.633.371,3.93,1.557.3,1.149-1,2.373-2.892,2.669s-3.633-.371-3.93-1.557C541.013,555.117,542.311,553.931,544.164,553.6Z" transform="translate(-513.357 -516.747)" fill="#484848"/>
        <path id="Path_29" data-name="Path 29" d="M261.794,74.558a2.93,2.93,0,0,0-.519.037s-13.828-1.965-17.869,17.572a1.553,1.553,0,0,1-1.742-.853s1.557-18.61,19.611-18.61h.519Z" transform="translate(-235.473 -70.739)" fill="#5f6366"/>
      </g>
    </g>
    <g id="Ellipse_2" data-name="Ellipse 2" transform="translate(320 5288)" fill="none" stroke="#fff" stroke-width="2">
      <circle cx="41.5" cy="41.5" r="41.5" stroke="none"/>
      <circle cx="41.5" cy="41.5" r="40.5" fill="none"/>
    </g>
  </g>
</svg>
