<svg xmlns="http://www.w3.org/2000/svg" width="42" height="42" viewBox="0 0 42 42">
  <g id="Group_22" data-name="Group 22" transform="translate(1633 -5417)">
    <rect id="Rectangle_84" data-name="Rectangle 84" width="42" height="42" transform="translate(-1633 5417)" fill="#fff" opacity="0"/>
    <g id="Group_21" data-name="Group 21" transform="translate(-1803.68 5323.871)">
      <path id="Path_31" data-name="Path 31" d="M226.083,109.966a12.486,12.486,0,1,0-16.12,11.949l3.633,3.633,3.633-3.633A12.491,12.491,0,0,0,226.083,109.966ZM213.6,105.734a4.233,4.233,0,1,1-4.233,4.233A4.233,4.233,0,0,1,213.6,105.734Z" transform="translate(-21.917 0)" fill="#aeaeae"/>
      <path id="Path_32" data-name="Path 32" d="M178.276,828.413c0,1.11,6,2.011,13.4,2.011s13.4-.9,13.4-2.011-6-2.01-13.4-2.01S178.276,827.3,178.276,828.413Z" transform="translate(0 -699.647)" fill="#aeaeae"/>
    </g>
  </g>
</svg>
