<svg xmlns="http://www.w3.org/2000/svg" width="42" height="42" viewBox="0 0 42 42">
  <g id="Group_24" data-name="Group 24" transform="translate(712 -5417)">
    <rect id="Rectangle_86" data-name="Rectangle 86" width="42" height="42" transform="translate(-712 5417)" fill="#fff" opacity="0"/>
    <path id="Path_34" data-name="Path 34" d="M44.113,141.863c0,5.594-2.564,5.594-14.917,5.594s-14.917,0-14.917-5.594c0-6.06,6.759-18.18,14.917-18.18s14.917,12.12,14.917,18.18ZM29.2,126.247a6.293,6.293,0,1,0,6.293,6.293,6.267,6.267,0,0,0-6.293-6.293Zm-13.052,4.662c2.564-4.2,6.992-8.624,13.052-8.624s10.955,4.895,13.052,8.624a2.332,2.332,0,0,0,4.2,0c.7-1.165,2.564-11.654-17.248-11.654s-17.947,10.722-17.248,11.654a2.588,2.588,0,0,0,4.2,0Z" transform="translate(-720.558 5304.745)" fill="#aeaeae"/>
  </g>
</svg>
