<svg xmlns="http://www.w3.org/2000/svg" width="13.176" height="14" viewBox="0 0 13.176 14">
  <path id="Path_41" data-name="Path 41" d="M38.861,12.059l-2.89-2.97a5.766,5.766,0,0,0,1.1-3.405,5.534,5.534,0,1,0-11.063,0,5.609,5.609,0,0,0,5.532,5.684,5.386,5.386,0,0,0,2.773-.765L37.3,13.667a1.087,1.087,0,0,0,1.565,0A1.158,1.158,0,0,0,38.861,12.059Zm-7.32-2.207a4.114,4.114,0,0,1-4.057-4.168,4.058,4.058,0,1,1,8.114,0A4.114,4.114,0,0,1,31.541,9.852Z" transform="translate(-26.009)" fill="#e62129"/>
</svg>
